<?xml version="1.0" encoding="utf-8"?>
<!-- Generator: Adobe Illustrator 26.2.1, SVG Export Plug-In . SVG Version: 6.00 Build 0)  -->
<svg version="1.1" id="Layer_1" xmlns="http://www.w3.org/2000/svg" xmlns:xlink="http://www.w3.org/1999/xlink" x="0px" y="0px"
	 viewBox="0 0 32 32" style="enable-background:new 0 0 32 32;" xml:space="preserve">
<style type="text/css">
	.st0{fill:#FFFFFF;}
</style>
<g>
	<path d="M16,0L16,0c8.84,0,16,7.16,16,16l0,0c0,8.84-7.16,16-16,16l0,0C7.16,32,0,24.84,0,16l0,0C0,7.16,7.16,0,16,0z"/>
	<path class="st0" d="M5,19.61V25h8.28v-1.2H6.21v-4.2L5,19.61L5,19.61z M25.79,19.61v4.2h-7.07V25H27V19.6L25.79,19.61L25.79,19.61
		z M13.29,11.4v8.21h5.44v-1.08h-4.23V11.4H13.29L13.29,11.4z M5,6v5.4h1.21V7.2h7.07V6H5z M18.72,6v1.2h7.07v4.2H27V6H18.72z"/>
</g>
</svg>
